HIERARCHY
ROOT Hips
{
 OFFSET 0.000000 0.000000 0.000000
 CHANNELS 6 Xposition Yposition Zposition Yrotation Xrotation Zrotation
 JOINT Chest
 {
  OFFSET 0.000000 103.927959 -11.547555
  CHANNELS 3 Yrotation Xrotation Zrotation
  JOINT Chest2
  {
   OFFSET 0.000000 116.259650 0.000000
   CHANNELS 3 Yrotation Xrotation Zrotation
   JOINT Chest3
   {
    OFFSET 0.000000 106.135078 0.000000
    CHANNELS 3 Yrotation Xrotation Zrotation
    JOINT Chest4
    {
     OFFSET 0.000000 106.016608 0.000000
     CHANNELS 3 Yrotation Xrotation Zrotation
     JOINT Neck
     {
      OFFSET 0.000000 148.478086 0.000000
      CHANNELS 3 Yrotation Xrotation Zrotation
      JOINT Head
      {
       OFFSET 0.000000 98.684725 0.000000
       CHANNELS 3 Yrotation Xrotation Zrotation
       End Site
       {
        OFFSET 0.000000 183.657339 0.000000
       }
      }
     }
     JOINT RightCollar
     {
      OFFSET -32.301251 83.229558 0.000000
      CHANNELS 3 Yrotation Xrotation Zrotation
      JOINT RightShoulder
      {
       OFFSET -148.983121 0.000000 0.000000
       CHANNELS 3 Yrotation Xrotation Zrotation
       JOINT RightElbow
       {
        OFFSET 0.000000 -318.416921 0.000000
        CHANNELS 3 Yrotation Xrotation Zrotation
        JOINT RightWrist
        {
         OFFSET 0.000000 -260.384535 0.000000
         CHANNELS 3 Yrotation Xrotation Zrotation
         End Site
         {
          OFFSET 0.000000 -194.729091 0.000000
         }
        }
       }
      }
     }
     JOINT LeftCollar
     {
      OFFSET 32.301251 83.229558 0.000000
      CHANNELS 3 Yrotation Xrotation Zrotation
      JOINT LeftShoulder
      {
       OFFSET 148.983121 0.000000 0.000000
       CHANNELS 3 Yrotation Xrotation Zrotation
       JOINT LeftElbow
       {
        OFFSET 0.000000 -318.416921 0.000000
        CHANNELS 3 Yrotation Xrotation Zrotation
        JOINT LeftWrist
        {
         OFFSET 0.000000 -260.384535 0.000000
         CHANNELS 3 Yrotation Xrotation Zrotation
         End Site
         {
          OFFSET 0.000000 -194.729091 0.000000
         }
        }
       }
      }
     }
    }
   }
  }
 }
 JOINT RightHip
 {
  OFFSET -85.448433 0.000000 0.000000
  CHANNELS 3 Yrotation Xrotation Zrotation
  JOINT RightKnee
  {
   OFFSET 0.000000 -444.902608 0.000000
   CHANNELS 3 Yrotation Xrotation Zrotation
   JOINT RightAnkle
   {
    OFFSET 0.000000 -434.916856 0.000000
    CHANNELS 3 Yrotation Xrotation Zrotation
    JOINT RightToe
    {
     OFFSET 0.000000 -65.483541 148.093546
     CHANNELS 3 Yrotation Xrotation Zrotation
     End Site
     {
      OFFSET 0.000000 -15.533754 66.277348
     }
    }
   }
  }
 }
 JOINT LeftHip
 {
  OFFSET 85.448433 0.000000 0.000000
  CHANNELS 3 Yrotation Xrotation Zrotation
  JOINT LeftKnee
  {
   OFFSET 0.000000 -444.902608 0.000000
   CHANNELS 3 Yrotation Xrotation Zrotation
   JOINT LeftAnkle
   {
    OFFSET 0.000000 -434.916856 0.000000
    CHANNELS 3 Yrotation Xrotation Zrotation
    JOINT LeftToe
    {
     OFFSET 0.000000 -65.483541 148.093546
     CHANNELS 3 Yrotation Xrotation Zrotation
     End Site
     {
      OFFSET 0.000000 -15.533754 66.277348
     }
    }
   }
  }
 }
}
MOTION
Frames: 8
Frame Time: 0.016667
-245.257141 943.043483 3782.416318 -153.516037 1.228447 0.671985 -0.057677 1.080473 -0.336808 -0.009601 -5.346070 -0.150199 -0.009544 0.474362 -0.151174 -0.018627 6.192447 -0.114036 13.093349 19.214146 -2.510580 24.681878 1.162077 -8.508122 0.754480 -1.707582 9.334437 36.093457 -19.914407 -14.896745 -12.266472 -50.371286 44.576089 -21.092362 -15.797019 6.229842 -1.110656 1.844096 -5.368238 -26.226420 -12.690084 39.079022 -13.680171 -68.669278 -22.048657 -16.793612 -11.547347 -7.687646 -2.391773 -5.161802 -6.528100 -0.261706 20.096610 0.066600 -1.405649 -13.995203 5.510510 -0.012053 -1.991912 0.693318 3.007223 -13.150862 4.798285 0.329049 18.894005 0.279280 9.257864 -7.088711 0.338718 0.000000 -0.000000 0.000000
-243.622500 943.251577 3782.166271 -153.395412 1.229147 0.616423 -0.083931 1.058957 -0.332664 -0.021487 -5.355615 -0.148295 -0.021379 0.464817 -0.150476 -0.027452 6.185291 -0.113500 13.089109 19.198821 -2.480351 24.667397 1.126446 -8.455518 0.738517 -1.691708 9.308599 36.103375 -19.927806 -14.880456 -12.263865 -50.368088 44.587999 -21.093037 -15.785199 6.235205 -1.085928 1.857037 -5.357341 -26.249378 -12.684864 39.073915 -13.657527 -68.671460 -22.088412 -16.788025 -11.548964 -7.691057 -2.317895 -5.090276 -6.370758 -0.339915 19.964792 0.077747 -1.511306 -13.941203 5.461627 -0.011191 -1.969028 0.651198 2.870704 -13.115078 4.938791 0.398035 18.702495 0.335137 9.156794 -6.904565 0.270475 0.000000 0.000000 0.000000
-242.060811 943.498749 3781.920286 -153.279386 1.232700 0.572587 -0.106851 1.037221 -0.334396 -0.031612 -5.365258 -0.149024 -0.031458 0.455173 -0.152233 -0.035146 6.178060 -0.114817 13.079690 19.183637 -2.453705 24.644514 1.090943 -8.407925 0.727805 -1.678795 9.289611 36.117686 -19.936959 -14.869999 -12.259946 -50.361078 44.595684 -21.091867 -15.771224 6.239601 -1.063715 1.869500 -5.343564 -26.268559 -12.675814 39.069007 -13.632289 -68.670791 -22.131242 -16.780257 -11.550751 -7.694285 -2.252052 -5.021987 -6.227686 -0.424479 19.829730 0.081635 -1.600088 -13.880126 5.415617 -0.010405 -1.951836 0.610796 2.735853 -13.074616 5.064186 0.475689 18.503997 0.388083 9.070145 -6.718210 0.206826 0.000000 -0.000000 0.000000
-240.569213 943.812365 3781.677749 -153.168301 1.237083 0.545372 -0.126383 1.016150 -0.345197 -0.039798 -5.374605 -0.153810 -0.039608 0.445826 -0.157850 -0.041687 6.171052 -0.119048 13.062793 19.169545 -2.431104 24.609049 1.056994 -8.365352 0.724409 -1.671245 9.281000 36.138818 -19.939951 -14.867086 -12.254792 -50.347074 44.597627 -21.086560 -15.753934 6.241528 -1.046048 1.881234 -5.325431 -26.282126 -12.660577 39.065600 -13.600477 -68.665031 -22.180557 -16.767743 -11.552705 -7.697216 -2.197907 -4.955126 -6.103683 -0.527789 19.689866 0.073289 -1.654859 -13.807903 5.371192 -0.009711 -1.943213 0.572621 2.599869 -13.028294 5.171772 0.567548 18.301260 0.436363 9.010919 -6.527776 0.138160 -0.000000 0.000000 -0.000000
-239.150566 944.165059 3781.439274 -153.061816 1.244231 0.529894 -0.142561 0.994870 -0.361872 -0.046215 -5.384043 -0.161227 -0.045995 0.436387 -0.165918 -0.047092 6.163973 -0.125130 13.040731 19.155623 -2.412086 24.565207 1.023238 -8.327769 0.726241 -1.666691 9.279247 36.164351 -19.938682 -14.869987 -12.248359 -50.329238 44.595397 -21.079423 -15.734478 6.242490 -1.030900 1.892483 -5.304431 -26.291922 -12.641516 39.062427 -13.566170 -68.656409 -22.232852 -16.753047 -11.554823 -7.699970 -2.151901 -4.891188 -5.994024 -0.637345 19.546771 0.057919 -1.692819 -13.728512 5.329749 -0.009079 -1.940291 0.536152 2.465531 -12.977360 5.264242 0.668055 18.091572 0.481633 8.966119 -6.334957 0.074461 -0.000000 0.000000 -0.000000
-237.835029 944.481952 3781.210381 -152.962816 1.255460 0.517799 -0.153866 0.973738 -0.378173 -0.050485 -5.393419 -0.168489 -0.050245 0.427011 -0.173614 -0.050865 6.156942 -0.130931 13.019347 19.142717 -2.395905 24.523288 0.992120 -8.295263 0.730847 -1.662874 9.279246 36.189868 -19.936321 -14.878530 -12.240749 -50.313541 44.592223 -21.075161 -15.717563 6.243328 -1.017137 1.902824 -5.284018 -26.300521 -12.624716 39.058498 -13.540546 -68.650354 -22.275475 -16.743011 -11.557194 -7.702346 -2.121873 -4.837642 -5.892623 -0.724138 19.414132 0.044320 -1.733982 -13.655966 5.293025 -0.008471 -1.936848 0.501143 2.349389 -12.927292 5.345456 0.754832 17.881787 0.523764 8.924926 -6.146947 0.014529 0.000000 0.000000 0.000000
-236.631566 944.737102 3780.989679 -152.873216 1.272286 0.506346 -0.158471 0.952462 -0.392360 -0.051877 -5.402865 -0.174823 -0.051629 0.417565 -0.180089 -0.052398 6.149857 -0.135814 13.000650 19.130251 -2.382187 24.486917 0.962855 -8.267841 0.736336 -1.659870 9.279664 36.215278 -19.932899 -14.893653 -12.231024 -50.302274 44.589041 -21.076340 -15.705373 6.245041 -1.004267 1.911015 -5.265045 -26.308313 -12.611974 39.052772 -13.530831 -68.649780 -22.302114 -16.741926 -11.559204 -7.704809 -2.113317 -4.796619 -5.797068 -0.773900 19.293171 0.035823 -1.786789 -13.593248 5.262783 -0.007856 -1.930781 0.466228 2.261544 -12.877223 5.415242 0.817418 17.666397 0.564168 8.883984 -5.962093 -0.043502 -0.000000 -0.000000 0.000000
-235.531212 944.956450 3780.778559 -152.791100 1.293175 0.498292 -0.158206 0.931321 -0.406172 -0.051122 -5.412254 -0.181000 -0.050876 0.408175 -0.186189 -0.052299 6.142814 -0.140415 12.982648 19.118790 -2.371298 24.452500 0.936192 -8.245506 0.744595 -1.657614 9.281833 36.240664 -19.928334 -14.914407 -12.220105 -50.293142 44.584889 -21.080389 -15.695734 6.246632 -0.992784 1.918305 -5.246671 -26.314909 -12.601488 39.046286 -13.529733 -68.651800 -22.319148 -16.745501 -11.561482 -7.706887 -2.120801 -4.765792 -5.709887 -0.801039 19.182813 0.029027 -1.842747 -13.537400 5.237212 -0.007268 -1.924206 0.432773 2.191855 -12.828101 5.473820 0.866279 17.450859 0.601539 8.846722 -5.782045 -0.097787 0.000000 0.000000 -0.000000
